<?xml version="1.0" encoding="UTF-8" standalone="no"?>
<svg width="45px" height="45px" viewBox="0 0 45 45" version="1.1" xmlns="http://www.w3.org/2000/svg" xmlns:xlink="http://www.w3.org/1999/xlink">
    <!-- Generator: Sketch 3.6.1 (26313) - http://www.bohemiancoding.com/sketch -->
    <title>aleft</title>
    <desc>Created with Sketch.</desc>
    <defs></defs>
    <g id="Page-1" stroke="none" stroke-width="1" fill="none" fill-rule="evenodd">
        <path d="M19.6255556,31.4414286 C19.2355556,31.7842857 18.7314444,32 18.1666667,32 C16.9677778,32 16,31.0428571 16,29.8571429 C16,29.23 16.273,28.6714286 16.7077778,28.2857143 L23.6252222,22 L16.7077778,15.7271429 C16.273,15.3285714 16,14.77 16,14.1428571 C16,12.9571429 16.9677778,12 18.1666667,12 C18.7314444,12 19.2355556,12.2142857 19.6255556,12.5714286 L28.2922222,20.4142857 C28.7414444,20.8271429 29,21.3985714 29,21.9985714 C29,22.5985714 28.74,23.17 28.2922222,23.5828571 L19.6255556,31.4414286 L19.6255556,31.4414286 Z" id="Shape-Copy-2" fill="#79B042" transform="translate(22.500000, 22.000000) scale(-1, 1) translate(-22.500000, -22.000000) "></path>
    </g>
</svg>