<?xml version="1.0" encoding="UTF-8" standalone="no"?>
<svg width="45px" height="45px" viewBox="0 0 45 45" version="1.1" xmlns="http://www.w3.org/2000/svg" xmlns:xlink="http://www.w3.org/1999/xlink">
    <!-- Generator: Sketch 3.6.1 (26313) - http://www.bohemiancoding.com/sketch -->
    <title>check</title>
    <desc>Created with Sketch.</desc>
    <defs></defs>
    <g id="Page-1" stroke="none" stroke-width="1" fill="none" fill-rule="evenodd">
        <path d="M22.286307,30.2810953 C21.8129084,30.7543606 21.1768299,31 20.5602729,31 C19.9404624,31 19.3076375,30.7543606 18.8342389,30.2810953 L10.7002424,22.0931145 C10.1943079,21.5838221 9.98607755,20.9124077 10.0007187,20.2573692 C10.0332547,19.6694722 10.2447386,19.0799376 10.7002424,18.6197731 C11.157373,18.1628838 11.7430208,17.9483587 12.3270417,17.9156067 C12.9777614,17.8992308 13.646376,18.1104807 14.1506837,18.6197731 L20.5586461,25.0702643 L31.8470064,13.7069846 C32.352941,13.1976922 33.0199287,12.971704 33.6706484,13.0028183 C34.2546694,13.0355702 34.8403171,13.2484577 35.2974477,13.7069846 C35.7513247,14.1671492 35.9644354,14.7566838 35.9969714,15.3445808 C36.0295074,15.9996193 35.8001287,16.6726713 35.2974477,17.1803261 L22.286307,30.2810953 L22.286307,30.2810953 Z" id="Path" fill="#79B042"></path>
    </g>
</svg>