<?xml version="1.0" encoding="UTF-8" standalone="no"?>
<svg width="45px" height="45px" viewBox="0 0 45 45" version="1.1" xmlns="http://www.w3.org/2000/svg" xmlns:xlink="http://www.w3.org/1999/xlink">
    <!-- Generator: Sketch 3.6.1 (26313) - http://www.bohemiancoding.com/sketch -->
    <title>cross</title>
    <desc>Created with Sketch.</desc>
    <defs></defs>
    <g id="Page-1" stroke="none" stroke-width="1" fill="none" fill-rule="evenodd">
        <path d="M33.9990263,31.2538177 C33.9623017,31.9429883 33.7235917,32.6340787 33.2094473,33.173513 C32.6934665,33.709108 32.0324236,33.9605881 31.3732169,33.998982 C30.6387248,34.018179 29.8840342,33.7666989 29.3148028,33.173513 L23.0000067,26.5678414 L16.6852107,33.173513 C16.114143,33.7666989 15.3612886,34.0162593 14.6267965,33.998982 C13.9675898,33.9605881 13.3065469,33.7110277 12.7905662,33.173513 C12.2782579,32.6340787 12.0377117,31.9429883 12.0009871,31.2538177 C11.9826248,30.4859396 12.2194985,29.6969448 12.7905662,29.1018392 L19.1053622,22.500007 L12.7905662,15.8981748 C12.2194985,15.3011495 11.9844611,14.5140744 12.0009871,13.7461963 C12.0377117,13.0570257 12.2764217,12.3659354 12.7905662,11.826501 C13.3065469,11.290906 13.9675898,11.0394259 14.6267965,11.001032 C15.3612886,10.981835 16.1159793,11.2294757 16.6852107,11.826501 L23.0000067,18.4283332 L29.3148028,11.826501 C29.8858704,11.2294757 30.6387248,10.9837547 31.3732169,11.001032 C32.0324236,11.0394259 32.6934665,11.2889863 33.2094473,11.826501 C33.7217555,12.3659354 33.9623017,13.0570257 33.9990263,13.7461963 C34.0173886,14.5140744 33.7768424,15.3030692 33.2094473,15.8981748 L26.8909787,22.500007 L33.2094473,29.1018392 C33.7768424,29.6988645 34.0155524,30.4859396 33.9990263,31.2538177 L33.9990263,31.2538177 Z" id="Path" fill="#79B042"></path>
    </g>
</svg>