<?xml version="1.0" encoding="UTF-8" standalone="no"?>
<svg width="45px" height="45px" viewBox="0 0 45 45" version="1.1" xmlns="http://www.w3.org/2000/svg" xmlns:xlink="http://www.w3.org/1999/xlink">
    <!-- Generator: Sketch 3.6.1 (26313) - http://www.bohemiancoding.com/sketch -->
    <title>download</title>
    <desc>Created with Sketch.</desc>
    <defs></defs>
    <g id="Page-1" stroke="none" stroke-width="1" fill="none" fill-rule="evenodd">
        <path d="M29,22.501 C29,22.911 28.83,23.29 28.56,23.562 L23.56,28.562 C23.29,28.832 22.91,29.001 22.5,29.001 C22.09,29.001 21.71,28.831 21.44,28.562 L16.44,23.562 C16.17,23.291 16,22.912 16,22.501 C16,21.671 16.67,21.001 17.5,21.001 C17.91,21.001 18.29,21.171 18.56,21.44 L21,23.879 L21,7.5 C21,6.67 21.67,6 22.5,6 C23.33,6 24,6.67 24,7.5 L24,23.879 L26.44,21.44 C26.71,21.17 27.09,21.001 27.5,21.001 C28.33,21.001 29,21.671 29,22.501 L29,22.501 Z M34,38.001 L11,38.001 C9.9,38.001 9,37.101 9,36.001 L9,15.001 C9,13.901 9.9,13.001 11,13.001 L16.5,13.001 C17.33,13.001 18,13.671 18,14.501 C18,15.331 17.33,16.001 16.5,16.001 L12,16.001 L12,35.001 L33,35.001 L33,16.001 L28.5,16.001 C27.67,16.001 27,15.331 27,14.501 C27,13.671 27.67,13.001 28.5,13.001 L34,13.001 C35.1,13.001 36,13.901 36,15.001 L36,36.001 C36,37.1 35.1,38.001 34,38.001 L34,38.001 Z" id="Shape" fill="#79B042"></path>
    </g>
</svg>