<?xml version="1.0" encoding="UTF-8" standalone="no"?>
<svg width="45px" height="45px" viewBox="0 0 45 45" version="1.1" xmlns="http://www.w3.org/2000/svg" xmlns:xlink="http://www.w3.org/1999/xlink">
    <!-- Generator: Sketch 3.6.1 (26313) - http://www.bohemiancoding.com/sketch -->
    <title>help</title>
    <desc>Created with Sketch.</desc>
    <defs></defs>
    <g id="Page-1" stroke="none" stroke-width="1" fill="none" fill-rule="evenodd">
        <path d="M20.9037343,24.6 L23.0393793,24.6 C23.513967,24.6 23.8699079,24.3666667 23.8699079,23.9333333 L23.8699079,22.7 C23.8699079,20.3333333 30,19.5666667 30,15.3666667 C30,12.2 26.8360815,10 22.7229874,10 C17.7002668,10 15.2086809,12.9333333 15.2086809,12.9333333 C14.971387,13.2 14.8922891,13.5666667 15.2086809,13.8 L16.5137973,14.8666667 C16.8301892,15.1 17.146581,15.1 17.4629729,14.8666667 C18.2539525,14.3 19.5195199,12.8666667 22.3274976,12.8666667 C24.6213385,12.8666667 25.8869059,14.0666667 25.8869059,15.4333333 C25.8869059,18.5 20.1523036,18.9333333 20.1523036,22.5666667 L20.1523036,23.9666667 C20.1523036,24.3333333 20.5082444,24.6 20.9037343,24.6 L20.9037343,24.6 L20.9037343,24.6 Z M19.2031281,31.7 C19.2031281,32.9666667 20.4291465,34 21.9320078,34 C23.4744181,34 24.7004365,32.9666667 24.7004365,31.7 C24.7004365,30.4 23.4744181,29.3666667 21.9320078,29.3666667 C20.4291465,29.3666667 19.2031281,30.4 19.2031281,31.7 L19.2031281,31.7 L19.2031281,31.7 Z" id="?" fill="#79B042"></path>
    </g>
</svg>