<?xml version="1.0" encoding="UTF-8" standalone="no"?>
<svg width="45px" height="45px" viewBox="0 0 45 45" version="1.1" xmlns="http://www.w3.org/2000/svg" xmlns:xlink="http://www.w3.org/1999/xlink">
    <!-- Generator: Sketch 3.6.1 (26313) - http://www.bohemiancoding.com/sketch -->
    <title>info</title>
    <desc>Created with Sketch.</desc>
    <defs></defs>
    <g id="Page-1" stroke="none" stroke-width="1" fill="none" fill-rule="evenodd">
        <path d="M22.5,18.875 C21.503125,18.875 20.6875,18.059375 20.6875,17.0625 C20.6875,16.065625 21.503125,15.25 22.5,15.25 C23.496875,15.25 24.3125,16.065625 24.3125,17.0625 C24.3125,18.059375 23.496875,18.875 22.5,18.875 L22.5,18.875 Z M22.5,29.75 C21.503125,29.75 20.6875,28.934375 20.6875,27.9375 L20.6875,22.5 C20.6875,21.503125 21.503125,20.6875 22.5,20.6875 C23.496875,20.6875 24.3125,21.503125 24.3125,22.5 L24.3125,27.9375 C24.3125,28.9334687 23.496875,29.75 22.5,29.75 L22.5,29.75 Z M22.5,10.71875 C16.0021875,10.71875 10.71875,16.0021875 10.71875,22.5 C10.71875,28.9978125 16.0021875,34.28125 22.5,34.28125 C28.9978125,34.28125 34.28125,28.9978125 34.28125,22.5 C34.28125,16.0021875 28.9978125,10.71875 22.5,10.71875 L22.5,10.71875 Z M22.5,37 C14.506875,37 8,30.493125 8,22.5 C8,14.506875 14.506875,8 22.5,8 C30.493125,8 37,14.506875 37,22.5 C37,30.493125 30.493125,37 22.5,37 L22.5,37 Z" id="Shape" fill="#79B042"></path>
    </g>
</svg>