<?xml version="1.0" encoding="UTF-8" standalone="no"?>
<svg width="45px" height="45px" viewBox="0 0 45 45" version="1.1" xmlns="http://www.w3.org/2000/svg" xmlns:xlink="http://www.w3.org/1999/xlink">
    <!-- Generator: Sketch 3.7 (28169) - http://www.bohemiancoding.com/sketch -->
    <title>report</title>
    <desc>Created with Sketch.</desc>
    <defs></defs>
    <g id="Page-1" stroke="none" stroke-width="1" fill="none" fill-rule="evenodd">
        <path d="M22,29 L15,29 L15,27 L22,27 L22,29 L22,29 Z M29,25 L15,25 L15,23 L29,23 L29,25 L29,25 Z M29,21 L15,21 L15,19 L29,19 L29,21 L29,21 Z M29,17 L15,17 L15,15 L29,15 L29,17 L29,17 Z M32,11 L12,11 L12,33 L32,33 L32,11 L32,11 Z M10,35 L10,9 L34,9 L34,35 L10,35 L10,35 Z" id="Shape" fill="#79B042"></path>
    </g>
</svg>