<?xml version="1.0" encoding="UTF-8" standalone="no"?>
<svg width="64px" height="64px" viewBox="0 0 64 64" version="1.1" xmlns="http://www.w3.org/2000/svg" xmlns:xlink="http://www.w3.org/1999/xlink">
    <!-- Generator: Sketch 3.7 (28169) - http://www.bohemiancoding.com/sketch -->
    <title>sh-close</title>
    <desc>Created with Sketch.</desc>
    <defs></defs>
    <g id="Page-1" stroke="none" stroke-width="1" fill="none" fill-rule="evenodd">
        <path d="M35.1828265,31.977102 L63.3474061,60.1416816 C64.2175313,61.0576029 64.2175313,62.4772809 63.3474061,63.3474061 C62.4772809,64.2175313 61.0576029,64.2175313 60.1874776,63.3474061 L31.977102,35.1828265 L3.81252236,63.3474061 C2.94239714,64.2175313 1.52271914,64.2175313 0.652593918,63.3474061 C-0.217531306,62.4772809 -0.217531306,61.0576029 0.652593918,60.1416816 L28.8171735,31.977102 L0.652593918,3.81252236 C-0.217531306,2.94239714 -0.217531306,1.52271914 0.652593918,0.652593918 C1.52271914,-0.217531306 2.94239714,-0.217531306 3.81252236,0.652593918 L31.977102,28.8171735 L60.1874776,0.652593918 C61.0576029,-0.217531306 62.4772809,-0.217531306 63.3474061,0.652593918 C64.2175313,1.52271914 64.2175313,2.94239714 63.3474061,3.81252236 L35.1828265,31.977102 L35.1828265,31.977102 Z" id="Shape" fill="#79B042"></path>
    </g>
</svg>