<?xml version="1.0" encoding="UTF-8" standalone="no"?>
<svg width="64px" height="64px" viewBox="0 0 64 64" version="1.1" xmlns="http://www.w3.org/2000/svg" xmlns:xlink="http://www.w3.org/1999/xlink">
    <!-- Generator: Sketch 3.7 (28169) - http://www.bohemiancoding.com/sketch -->
    <title>sh-facebook</title>
    <desc>Created with Sketch.</desc>
    <defs></defs>
    <g id="Page-1" stroke="none" stroke-width="1" fill="none" fill-rule="evenodd">
        <path d="M32,64 C49.673112,64 64,49.673112 64,32 C64,14.326888 49.673112,0 32,0 C14.326888,0 0,14.326888 0,32 C0,49.673112 14.326888,64 32,64 Z M28,47.1 L28,34 L24,34 L24,28.1 L28.1,28.1 L28.1,23.2 C28.1,23.2 28.3,17.1 33.5,17 L39.3,17 L39.3,22.8 L35.7,22.8 C35.7,22.8 34.2,22.8 34.2,24.5 L34.2,28.2 L39.4,28.2 L38.8,34.1 L34.3,34.1 L34.3,47.1 L28,47.1 Z" id="Combined-Shape" fill="#3B5998"></path>
    </g>
</svg>