<?xml version="1.0" encoding="UTF-8" standalone="no"?>
<svg width="64px" height="64px" viewBox="0 0 64 64" version="1.1" xmlns="http://www.w3.org/2000/svg" xmlns:xlink="http://www.w3.org/1999/xlink">
    <!-- Generator: Sketch 3.7 (28169) - http://www.bohemiancoding.com/sketch -->
    <title>sh-gplus</title>
    <desc>Created with Sketch.</desc>
    <defs></defs>
    <g id="Page-1" stroke="none" stroke-width="1" fill="none" fill-rule="evenodd">
        <path d="M34.8820197,34.4291452 C36.5654707,35.9029244 37.2,37.5489459 37.2,39.9 C37.2,42.9 34.9,45.5 31.4,46.5 C30.3,46.8 29.1,47 27.8,47 C26.3,47 25,46.8 23.7,46.5 C21.3,45.9 19.5,44.7 18.6,43.2 C18.2,42.5 18,41.8 18,41.1 C18,40.3 18.1,39.5 18.5,38.8 C19.9,35.9 23.5,34 27.4,34 L27.5,34 C27.2,33.4 27,32.8 27,32.2 C27,31.9 27,31.6 27.1,31.3 C23,31.2 19.9,28.2 19.9,24.2 C19.9,21.4 22.2,18.6 25.4,17.5 C26.3,17.2 27.3,17 28.3,17 L37.2,17 C37.5,17 37.8,17.2 37.9,17.5 C38,17.8 37.8,18.1 37.6,18.3 L35.6,19.7 C35.5,19.8 35.3,19.8 35.2,19.8 L34.5,19.8 C35.5,20.9 36,22.4 36,24.2 C36,26.2 35,28 33.2,29.4 C31.9,30.5 31.8,30.8 31.8,31.4 C31.8,31.7 32.7,32.9 33.8,33.6 C34.0982695,33.8028232 34.373764,34.0070699 34.6276723,34.2142684 C34.5466447,34.0999017 34.5,33.9577249 34.5,33.8 L34.5,32.4 C34.5,32 34.8,31.7 35.2,31.7 L40.2,31.7 L40.2,26.7 C40.2,26.3 40.5,26 40.9,26 L42.3,26 C42.7,26 43,26.3 43,26.7 L43,31.7 L48,31.7 C48.4,31.7 48.7,32 48.7,32.4 L48.7,33.8 C48.7,34.2 48.4,34.5 48,34.5 L43,34.5 L43,39.5 C43,39.9 42.7,40.2 42.3,40.2 L40.9,40.2 C40.5,40.2 40.2,39.9 40.2,39.5 L40.2,34.5 L35.2,34.5 C35.0839639,34.5 34.976343,34.4747543 34.8820197,34.4291452 Z M32,64 C49.673112,64 64,49.673112 64,32 C64,14.326888 49.673112,0 32,0 C14.326888,0 0,14.326888 0,32 C0,49.673112 14.326888,64 32,64 Z M22,39.9 C22,37.8 24.6,36 27.7,36 L27.8,36 C28.5,36 29.1,36.1 29.7,36.3 C29.9,36.4 30.1,36.6 30.3,36.7 C31.7,37.7 32.6,38.3 32.9,39.3 C33,39.6 33,39.8 33,40.1 C33,42.7 31.1,44 27.2,44 C24.3,44 22,42.2 22,39.9 Z M24.860825,20.8 C25.360825,20.3 25.960825,20 26.660825,20 L26.760825,20 C28.760825,20.1 30.560825,22.2 30.960825,24.9 C31.160825,26.4 30.860825,27.8 30.060825,28.6 C29.560825,29.1 28.960825,29.4 28.260825,29.4 C26.360825,29.3 24.460825,27.1 24.060825,24.5 C23.860825,22.9 24.160825,21.6 24.860825,20.8 Z" id="Combined-Shape" fill="#DD4B39"></path>
    </g>
</svg>