<?xml version="1.0" encoding="UTF-8" standalone="no"?>
<svg width="64px" height="64px" viewBox="0 0 64 64" version="1.1" xmlns="http://www.w3.org/2000/svg" xmlns:xlink="http://www.w3.org/1999/xlink">
    <!-- Generator: Sketch 3.7 (28169) - http://www.bohemiancoding.com/sketch -->
    <title>sh-linkedin</title>
    <desc>Created with Sketch.</desc>
    <defs></defs>
    <g id="Page-1" stroke="none" stroke-width="1" fill="none" fill-rule="evenodd">
        <path d="M32,64 C49.673112,64 64,49.673112 64,32 C64,14.326888 49.673112,0 32,0 C14.326888,0 0,14.326888 0,32 C0,49.673112 14.326888,64 32,64 Z M42.6,45.1 L42.6,33 C42.6,33 42.2,29.8 39.1,29.8 C36,29.8 35.4,32.9 35.4,32.9 L35.4,45.2 L28.9,45.2 L29,25.2 L35.3,25.2 L35.2,27.7 C35.2,27.7 36.5,24.4 41.4,24.4 C46.3,24.4 48.5,27.2 48.9,32.5 L48.9,45.2 L42.6,45.2 L42.6,45.1 Z M21,22.2 C18.8,22.2 17,20.6 17,18.6 C17,16.6 18.8,15 21,15 C23.2,15 25,16.6 25,18.6 C25,20.6 23.2,22.2 21,22.2 Z M25,45.1 L17.1,45.1 L17.1,25.1 L25,25 L25,45.1 Z" id="Combined-Shape" fill="#007BB6"></path>
    </g>
</svg>