<?xml version="1.0" encoding="UTF-8" standalone="no"?>
<svg width="64px" height="64px" viewBox="0 0 64 64" version="1.1" xmlns="http://www.w3.org/2000/svg" xmlns:xlink="http://www.w3.org/1999/xlink">
    <!-- Generator: Sketch 3.7 (28169) - http://www.bohemiancoding.com/sketch -->
    <title>sh-twitter</title>
    <desc>Created with Sketch.</desc>
    <defs></defs>
    <g id="Page-1" stroke="none" stroke-width="1" fill="none" fill-rule="evenodd">
        <path d="M32,64 C49.673112,64 64,49.673112 64,32 C64,14.326888 49.673112,0 32,0 C14.326888,0 0,14.326888 0,32 C0,49.673112 14.326888,64 32,64 Z M47,23.1071793 C46.9,24.2071793 45.2,25.4071793 44.2,26.2071793 C45.2,40.6071793 28.9,49.6071793 17,42.3071793 C20.3,42.3071793 24,41.4071793 26,39.5071793 C23.1,39.0071793 21.1,37.7071793 20.3,35.2071793 C21.1,35.1071793 22.3,35.4071793 22.9,35.0071793 C20.3,34.0071793 18.2,32.4071793 18,28.9071793 C18.9,29.0071793 19.4,29.6071793 20.6,29.4071793 C18.9,28.3071793 16.9,24.1071793 18.7,21.1071793 C21.8,24.5071793 25.7,27.2071793 31.7,27.7071793 C30.2,21.3071793 38.7,17.4071793 42.5,22.0071793 C44,21.7071793 45.2,21.1071793 46.5,20.6071793 C46,22.0071793 44.9,23.0071793 43.9,23.9071793 C45,23.8071793 46.2,23.7071793 47,23.1071793 Z" id="Combined-Shape" fill="#00ACED"></path>
    </g>
</svg>