<?xml version="1.0" encoding="UTF-8" standalone="no"?>
<svg width="45px" height="45px" viewBox="0 0 45 45" version="1.1" xmlns="http://www.w3.org/2000/svg" xmlns:xlink="http://www.w3.org/1999/xlink">
    <!-- Generator: Sketch 3.6.1 (26313) - http://www.bohemiancoding.com/sketch -->
    <title>share</title>
    <desc>Created with Sketch.</desc>
    <defs></defs>
    <g id="Page-1" stroke="none" stroke-width="1" fill="none" fill-rule="evenodd">
        <path d="M22.5127124,17.02275 C21.9927124,17.00275 21.4827124,16.95275 20.9827124,17.02275 L18.9827124,17.02275 L18.9827124,16.02275 L18.9827124,15.02275 L18.9827124,11.61275 L11.3227124,20.01275 L18.9827124,28.40375 L18.9827124,25.03275 L18.9827124,24.03275 L18.9827124,23.03275 L20.9827124,23.03275 C22.0727124,23.03275 22.3327124,23.00375 22.9827124,23.03275 C27.1627124,23.21475 31.8427124,26.26275 34.0027124,29.03275 C33.9727124,25.27275 29.5827124,17.24275 22.5127124,17.02275 L22.5127124,17.02275 Z M34.7527124,36.02275 C33.5727124,29.76275 28.0827124,25.03275 21.4827124,25.03275 L20.9827124,25.03275 L20.9827124,30.90375 C21.0227124,31.19275 20.9427124,31.50375 20.7127124,31.72375 L20.7027124,31.73375 C20.5227124,31.92275 20.2627124,32.04275 19.9827124,32.04275 C19.6727124,32.04275 19.4027124,31.89475 19.2227124,31.66375 L9.29271243,20.77275 C9.07271243,20.56375 8.98271243,20.28275 9.00271243,20.01275 C8.98271243,19.73375 9.07271243,19.45175 9.29271243,19.25275 L19.2727124,8.29175 C19.6727124,7.90275 20.3127124,7.90275 20.7127124,8.29175 C20.9427124,8.52175 21.0227124,8.82275 20.9827124,9.12175 L20.9827124,15.02175 C29.2827124,15.02175 36.0027124,21.74275 36.0027124,30.03175 C36.0027124,32.16275 35.5527124,34.18275 34.7527124,36.02275 L34.7527124,36.02275 Z" id="Shape" fill="#79B042"></path>
    </g>
</svg>