<?xml version="1.0" encoding="UTF-8" standalone="no"?>
<svg width="45px" height="45px" viewBox="0 0 45 45" version="1.1" xmlns="http://www.w3.org/2000/svg" xmlns:xlink="http://www.w3.org/1999/xlink">
    <!-- Generator: Sketch 3.6.1 (26313) - http://www.bohemiancoding.com/sketch -->
    <title>search copy</title>
    <desc>Created with Sketch.</desc>
    <defs></defs>
    <g id="Page-1" stroke="none" stroke-width="1" fill="none" fill-rule="evenodd">
        <path d="M26.2494922,26.0625 C22.2188057,26.0625 18.9372207,22.78 18.9372207,18.75 C18.9372207,14.72 22.2188057,11.4375 26.2494922,11.4375 C30.2785538,11.4375 33.5617637,14.72 33.5617637,18.75 C33.5617637,22.78 30.2785538,26.0625 26.2494922,26.0625 L26.2494922,26.0625 Z M26.2494922,9 C20.8619731,9 16.4997969,13.363125 16.4997969,18.75 C16.4997969,21.000625 17.2708353,23.0725 18.5545452,24.721875 L10.3566764,32.92 C10.1218712,33.155625 10,33.4725 10,33.78125 C10,34.09 10.1218712,34.406875 10.3566764,34.6425 C10.5931065,34.878125 10.9091591,35 11.2187119,35 C11.5266398,35 11.8443174,34.878125 12.0807475,34.6425 L20.2786163,26.444375 C21.9271273,27.728125 23.99975,28.5 26.2503047,28.5 C31.6361989,28.5 36,24.136875 36,18.75 C36,13.363125 31.6353864,9 26.2494922,9 L26.2494922,9 Z" id="Shape" fill="#D6D6D6" transform="translate(23.000000, 22.000000) scale(-1, 1) translate(-23.000000, -22.000000) "></path>
    </g>
</svg>